<svg xmlns="http://www.w3.org/2000/svg" viewBox="0 0 100 100" width="100" height="100">
  <!-- Background (optional subtle gradient for depth) -->
  <defs>
    <linearGradient id="grad" x1="0%" y1="0%" x2="100%" y2="100%">
      <stop offset="0%" style="stop-color:#e0f7fa;stop-opacity:1" />
      <stop offset="100%" style="stop-color:#b2ebf2;stop-opacity:1" />
    </linearGradient>
  </defs>
  <rect x="0" y="0" width="100" height="100" fill="url(#grad)" />

  <!-- Horizontal Navbar (top bar) -->
  <rect x="10" y="10" width="80" height="8" rx="2" fill="#0288d1" />

  <!-- Left Sidebar (vertical bar) -->
  <rect x="10" y="22" width="8" height="68" rx="2" fill="#0288d1" />

  <!-- Main Panel (central area) -->
  <rect x="22" y="22" width="68" height="68" rx="4" fill="none" stroke="#0288d1" stroke-width="2" />

  <!-- Oil Rig (Oil & Gas) - Simplified -->
  <g transform="translate(30, 30) scale(0.5)">
    <path d="M10,40 L10,10 L20,10 L20,0 L30,0 L30,10 L40,10 L40,40 Z" fill="none" stroke="#01579b" stroke-width="3" />
    <rect x="20" y="40" width="10" height="20" fill="none" stroke="#01579b" stroke-width="3" />
  </g>

  <!-- Utility Pole (Utilities) - Simplified -->
  <g transform="translate(60, 30) scale(0.5)">
    <line x1="25" y1="0" x2="25" y2="60" stroke="#01579b" stroke-width="4" />
    <line x1="15" y1="10" x2="35" y2="10" stroke="#01579b" stroke-width="3" />
    <line x1="15" y1="20" x2="35" y2="20" stroke="#01579b" stroke-width="3" />
  </g>

  <!-- Magnifying Glass (Analysis/Search) -->
  <g transform="translate(72, 72) scale(0.3)">
    <circle cx="15" cy="15" r="10" fill="none" stroke="#01579b" stroke-width="4" />
    <line x1="20" y1="20" x2="30" y2="30" stroke="#01579b" stroke-width="4" />
  </g>
</svg>