<svg xmlns="http://www.w3.org/2000/svg" viewBox="0 0 120 120" width="120" height="120">
  <!-- Background circle with gradient -->
  <defs>
    <linearGradient id="bgGrad" x1="0%" y1="0%" x2="100%" y2="100%">
      <stop offset="0%" style="stop-color:#3b82f6;stop-opacity:1" />
      <stop offset="100%" style="stop-color:#1d4ed8;stop-opacity:1" />
    </linearGradient>
    <linearGradient id="imageGrad" x1="0%" y1="0%" x2="100%" y2="100%">
      <stop offset="0%" style="stop-color:#ffffff;stop-opacity:0.9" />
      <stop offset="100%" style="stop-color:#e5e7eb;stop-opacity:0.9" />
    </linearGradient>
  </defs>
  
  <!-- Main background circle -->
  <circle cx="60" cy="60" r="55" fill="url(#bgGrad)" stroke="#1e40af" stroke-width="2"/>
  
  <!-- Image grid representation (catalog) -->
  <g transform="translate(25, 25)">
    <!-- Grid of image thumbnails -->
    <rect x="0" y="0" width="18" height="18" rx="2" fill="url(#imageGrad)" stroke="#3b82f6" stroke-width="1"/>
    <rect x="22" y="0" width="18" height="18" rx="2" fill="url(#imageGrad)" stroke="#3b82f6" stroke-width="1"/>
    <rect x="44" y="0" width="18" height="18" rx="2" fill="url(#imageGrad)" stroke="#3b82f6" stroke-width="1"/>
    
    <rect x="0" y="22" width="18" height="18" rx="2" fill="url(#imageGrad)" stroke="#3b82f6" stroke-width="1"/>
    <rect x="22" y="22" width="18" height="18" rx="2" fill="url(#imageGrad)" stroke="#3b82f6" stroke-width="1"/>
    <rect x="44" y="22" width="18" height="18" rx="2" fill="url(#imageGrad)" stroke="#3b82f6" stroke-width="1"/>
    
    <rect x="0" y="44" width="18" height="18" rx="2" fill="url(#imageGrad)" stroke="#3b82f6" stroke-width="1"/>
    <rect x="22" y="44" width="18" height="18" rx="2" fill="url(#imageGrad)" stroke="#3b82f6" stroke-width="1"/>
    <rect x="44" y="44" width="18" height="18" rx="2" fill="url(#imageGrad)" stroke="#3b82f6" stroke-width="1"/>
  </g>
  
  <!-- AI/Analysis symbol (brain/neural network inspired) -->
  <g transform="translate(75, 75)">
    <!-- Central node -->
    <circle cx="15" cy="15" r="3" fill="#fbbf24" stroke="#f59e0b" stroke-width="1"/>
    
    <!-- Connected nodes -->
    <circle cx="5" cy="8" r="2" fill="#fbbf24" stroke="#f59e0b" stroke-width="1"/>
    <circle cx="25" cy="8" r="2" fill="#fbbf24" stroke="#f59e0b" stroke-width="1"/>
    <circle cx="8" cy="25" r="2" fill="#fbbf24" stroke="#f59e0b" stroke-width="1"/>
    <circle cx="22" cy="25" r="2" fill="#fbbf24" stroke="#f59e0b" stroke-width="1"/>
    
    <!-- Connection lines -->
    <line x1="15" y1="15" x2="5" y2="8" stroke="#fbbf24" stroke-width="1.5"/>
    <line x1="15" y1="15" x2="25" y2="8" stroke="#fbbf24" stroke-width="1.5"/>
    <line x1="15" y1="15" x2="8" y2="25" stroke="#fbbf24" stroke-width="1.5"/>
    <line x1="15" y1="15" x2="22" y2="25" stroke="#fbbf24" stroke-width="1.5"/>
  </g>
  
  <!-- Search/magnifying glass icon -->
  <g transform="translate(85, 25)">
    <circle cx="8" cy="8" r="6" fill="none" stroke="#ffffff" stroke-width="2"/>
    <line x1="12" y1="12" x2="18" y2="18" stroke="#ffffff" stroke-width="2" stroke-linecap="round"/>
  </g>
  
  <!-- Letter "C" for COICE -->
  <text x="60" y="105" font-family="Arial, sans-serif" font-size="14" font-weight="bold" text-anchor="middle" fill="#1e40af">COICE</text>
</svg>